<svg width="60" height="40" viewBox="60 20 120 80" fill="none" xmlns="http://www.w3.org/2000/svg">
<path d="M63.3505 88V42.56H73.7825V88H63.3505ZM112.111 42.56H122.479L122.607 67.136C122.607 71.4453 121.796 75.2213 120.175 78.464C118.553 81.7067 116.249 84.224 113.263 86.016C110.276 87.7653 106.756 88.64 102.703 88.64C95.9612 88.64 90.8412 86.976 87.3425 83.648C83.8865 80.32 82.1585 75.3493 82.1585 68.736V42.56H92.5905V67.904C92.5905 71.9573 93.4652 74.88 95.2145 76.672C96.9638 78.464 99.4172 79.36 102.575 79.36C105.689 79.36 108.079 78.336 109.743 76.288C111.449 74.1973 112.281 70.9547 112.239 66.56L112.111 42.56ZM145.633 88.576C140.044 88.576 135.713 87.3813 132.641 84.992C129.569 82.6027 127.82 79.0827 127.393 74.432L137.185 73.024C137.441 75.2427 138.316 76.9493 139.809 78.144C141.302 79.296 143.372 79.872 146.017 79.872C148.278 79.872 150.006 79.488 151.201 78.72C152.438 77.9093 153.057 76.7787 153.057 75.328C153.057 74.0053 152.417 72.96 151.137 72.192C149.857 71.424 147.745 70.6987 144.801 70.016C141.644 69.248 138.977 68.3307 136.801 67.264C134.625 66.1547 132.982 64.7253 131.873 62.976C130.764 61.2267 130.209 59.008 130.209 56.32C130.209 53.504 130.934 51.008 132.385 48.832C133.836 46.656 135.862 44.9707 138.465 43.776C141.068 42.5387 144.076 41.92 147.489 41.92C151.926 41.92 155.553 43.0507 158.369 45.312C161.185 47.5733 162.806 50.6667 163.233 54.592L154.081 56.128C153.74 54.3787 152.95 53.0347 151.713 52.096C150.476 51.1147 148.918 50.624 147.041 50.624C145.164 50.624 143.649 51.072 142.497 51.968C141.345 52.8213 140.769 53.9947 140.769 55.488C140.769 56.8533 141.324 57.9627 142.433 58.816C143.542 59.6267 145.569 60.3947 148.513 61.12C151.628 61.888 154.316 62.7627 156.577 63.744C158.838 64.6827 160.566 65.984 161.761 67.648C162.998 69.312 163.617 71.5733 163.617 74.432C163.617 77.2053 162.87 79.6587 161.377 81.792C159.884 83.9253 157.772 85.5893 155.041 86.784C152.353 87.9787 149.217 88.576 145.633 88.576Z" fill="#4C97E1"/>
<path d="M82 33H164" stroke="#4C97E1" stroke-width="7"/>
<path d="M63.5 33H73.5" stroke="black" stroke-width="7"/>
</svg>
