<svg width="54" height="179" viewBox="0 0 54 179" fill="none" xmlns="http://www.w3.org/2000/svg">
<path d="M21.0007 1.37624C22.0244 0.8491 23.8262 0.141199 24.7429 0.141199L25.0099 0.120585C26.0499 0.0403181 27.0946 0.0415323 28.1344 0.124217L28.3479 0.141199C29.3772 0.141199 31.5222 1.03363 32.429 1.56061C32.5074 1.60617 32.5787 1.66016 32.646 1.71976L33.7709 2.71655C33.9554 2.88003 34.0973 3.08242 34.1852 3.30756L34.9723 5.32362C35.0394 5.49566 35.0738 5.67777 35.0738 5.86137V8.7158L34.8452 10.9414C34.8235 11.152 34.9969 11.3344 35.2186 11.3344C35.3607 11.3344 35.4906 11.411 35.5542 11.5323L35.6841 11.7802C35.7428 11.8922 35.7733 12.0157 35.7733 12.1409V13.5648C35.7733 13.6862 35.7583 13.8073 35.7285 13.9253L35.164 16.1628C35.1111 16.3725 34.9146 16.5202 34.6886 16.5202C34.4462 16.5202 34.2404 16.6897 34.2049 16.9185L34.0776 17.7386C34.0603 17.8502 34.0291 17.9594 33.9849 18.064L33.0248 20.3325C32.9567 20.4935 32.8552 20.6398 32.7265 20.7626C32.4724 21.005 32.3297 21.3336 32.3297 21.6765V25.3002C32.3297 25.4018 32.9151 26.6742 33.3618 27.626C33.5278 27.9798 33.8289 28.2592 34.2032 28.41L39.3016 30.4631C39.4241 30.5125 39.5525 30.5471 39.6838 30.5664L44.0138 31.2021C44.2564 31.2377 44.4872 31.3256 44.6888 31.4592L48.5391 34.0094C48.8105 34.1892 49.0176 34.4441 49.1324 34.7398L51.0339 39.639C51.0833 39.7663 51.1149 39.8993 51.1278 40.0345L51.7002 46.0436L52.5832 50.504C52.6043 50.6108 52.6135 50.7194 52.6107 50.828L52.3997 58.9825V62.9146C52.3997 63.0312 52.4136 63.1474 52.4411 63.261L53.0041 65.5891C53.0315 65.7027 53.0454 65.8189 53.0454 65.9354V71.87L52.2383 83.2686L52.0231 89.4814L52.9007 98.9394C52.925 99.2018 52.8784 99.4658 52.7653 99.7061L51.8177 101.72C51.7754 101.81 51.724 101.896 51.6645 101.977L49.6343 104.725C49.5063 104.898 49.3424 105.044 49.1526 105.154L47.9337 105.86L46.4279 106.644C46.257 106.733 46.0535 106.745 45.8728 106.676L45.8339 106.661C45.5563 106.555 45.4016 106.271 45.4701 105.993C45.5279 105.759 45.427 105.515 45.2171 105.382L45.1674 105.35C45.1114 105.314 45.0661 105.265 45.036 105.208C44.9661 105.075 44.9873 104.914 45.0897 104.801L46.454 103.299C46.6464 103.087 46.457 102.762 46.1668 102.805C46.0608 102.821 45.9536 102.785 45.8823 102.708L45.8453 102.669C45.6915 102.503 45.7082 102.25 45.8823 102.105L48.9744 99.5233C49.2744 99.2728 49.4666 98.9252 49.5141 98.5476L49.5754 98.0601C49.5927 97.9222 49.5769 97.7824 49.5291 97.6513L49.4355 97.3945C49.2954 97.0102 48.8333 96.8309 48.4519 97.0129C48.2918 97.0893 48.1681 97.2208 48.1056 97.3809L47.4108 99.1627C47.365 99.2802 47.3044 99.3919 47.2302 99.4953L46.8279 100.056C46.7118 100.218 46.5194 100.315 46.3138 100.315C46.1146 100.315 45.9273 100.224 45.8101 100.07L45.7452 99.9852C45.6296 99.8335 45.5734 99.6478 45.5865 99.4606L45.7663 96.8858C45.7764 96.7424 45.7653 96.5984 45.7335 96.4579L45.4048 95.0071C45.3691 94.8499 45.3595 94.6884 45.3763 94.5284L45.532 93.0424C45.5546 92.8273 45.6243 92.6191 45.7367 92.4314L46.5081 91.1432C46.597 90.9948 46.6594 90.8333 46.6927 90.6653L46.9596 89.319C46.9988 89.1211 46.997 88.9178 46.9542 88.7206L46.3733 86.0413L45.2972 81.985L44.5439 78.8016L44.1302 76.0879C44.119 76.0145 44.1134 75.9404 44.1134 75.8662V73.1537L44.3287 68.6353V64.8721C44.3287 64.6785 44.2904 64.4866 44.2159 64.3065L43.5774 62.7629C43.5402 62.6731 43.512 62.5803 43.4931 62.4855L43.0911 60.4715L42.7364 58.4407C42.7218 58.357 42.7144 58.2724 42.7144 58.1875V55.9018L42.3378 53.2318L41.7086 51.0304C41.6977 50.9923 41.6789 50.9567 41.6534 50.9256C41.4717 50.705 41.1002 50.8275 41.1002 51.1082V52.6157L40.8424 56.1093C40.835 56.2103 40.8171 56.3104 40.789 56.4081L39.7874 59.8968C39.7659 59.9717 39.7503 60.0481 39.7409 60.1253L39.399 62.9213C39.3853 63.0335 39.3846 63.1468 39.3968 63.2591L40.0779 69.5082L41.3693 76.5424L42.7144 84.7576L43.5754 93.4863L43.2525 104.988L42.7683 114.23L42.3467 121.521C42.3408 121.623 42.3455 121.726 42.3609 121.827L43.4677 129.12L44.1013 138.239C44.1094 138.355 44.1037 138.471 44.0843 138.586L42.553 147.655L40.0025 156.173C39.9811 156.245 39.9651 156.318 39.9547 156.392L39.1632 162.032L38.9475 164.048C38.9128 164.373 38.9869 164.699 39.1591 164.981L39.4635 165.479C39.5846 165.677 39.6578 165.899 39.6778 166.127L39.8459 168.052C39.857 168.18 39.8846 168.305 39.9284 168.426C40.4663 169.913 41.4356 172.593 41.4769 172.711C41.5145 172.819 41.9391 174.061 42.225 174.897C42.2993 175.115 42.3219 175.345 42.2912 175.572L42.2687 175.738C42.1811 176.386 41.6751 176.911 41.006 177.047L39.8627 177.281L37.2799 177.538H35.6428C35.4118 177.538 35.1858 177.601 34.9915 177.72C34.7017 177.898 34.3459 177.949 34.0142 177.86L33.5988 177.749C33.1053 177.616 32.707 177.268 32.5258 176.81L32.021 175.535C31.9407 175.332 31.9062 175.116 31.9196 174.899L32.2221 170.042V167.448C32.2221 167.363 32.2147 167.278 32.2001 167.195L31.9386 165.697C31.9125 165.548 31.9097 165.395 31.9302 165.245L32.1869 163.367C32.2102 163.197 32.2632 163.031 32.3437 162.878L33.0397 161.55C33.1392 161.36 33.1965 161.152 33.208 160.94L33.4596 156.281C33.3879 154.57 33.2444 151.106 33.2444 150.941C33.2444 150.777 33.065 148.511 32.9754 147.398L32.6192 145.671C32.4264 144.736 32.3009 143.788 32.2435 142.835L32.0606 139.799L32.3223 135.205C32.3272 135.119 32.3397 135.033 32.3598 134.949L32.9754 132.354L33.2449 131.025C33.2802 130.852 33.2838 130.673 33.2556 130.498L33.0042 128.939C32.9851 128.82 32.9513 128.704 32.9037 128.592L31.7916 125.988L31.1363 124.352C31.1069 124.279 31.0834 124.203 31.066 124.126L30.6529 122.296C30.4438 121.37 30.3009 120.429 30.2254 119.482L29.9622 116.181L29.5855 112.587L29.3703 110.327V105.821C29.3703 105.677 29.3491 105.533 29.3074 105.395L28.2403 101.855L27.2696 99.5859C27.1998 99.4229 27.1599 99.2497 27.1515 99.0738L27.0028 95.9508V94.8212C27.0028 94.6227 26.7265 94.4618 26.5185 94.4618C26.2808 94.4618 26.0881 94.6545 26.0881 94.8923V95.9508L26.0568 96.6063C25.9707 98.4139 25.5622 100.192 24.8505 101.855L24.5718 102.78C24.0073 104.652 23.7205 106.597 23.7205 108.553V110.327L23.5053 112.587L23.1287 116.181L22.8654 119.482C22.7899 120.429 22.647 121.37 22.4379 122.296L22.3498 122.687C22.1161 123.722 21.8004 124.737 21.4057 125.722L21.2992 125.988L20.4358 128.01C20.223 128.508 20.0719 129.031 19.9856 129.566C19.858 130.357 19.8743 131.165 20.0336 131.951L20.1155 132.354L20.3536 133.358C20.6248 134.501 20.7947 135.665 20.8615 136.838L21.0302 139.799L20.8474 142.835C20.79 143.788 20.6644 144.736 20.4716 145.671L20.1155 147.398C20.0258 148.511 19.8464 150.777 19.8464 150.941C19.8464 151.106 19.7029 154.57 19.6312 156.281L19.8379 160.107C19.879 160.868 20.0833 161.611 20.4369 162.286C20.7226 162.831 20.9114 163.422 20.9948 164.032L21.0397 164.361C21.1404 165.097 21.1265 165.845 20.9986 166.577L20.9842 166.659C20.9074 167.099 20.8688 167.545 20.8688 167.991V170.042L21.1441 174.465C21.1754 174.967 21.0956 175.47 20.9104 175.938L20.6305 176.645C20.408 177.207 19.9328 177.63 19.349 177.787L19.0704 177.862C18.7414 177.95 18.3906 177.899 18.1002 177.721C17.9051 177.601 17.6806 177.538 17.4516 177.538H15.8109L13.2282 177.281L12.1492 177.061C11.4419 176.916 10.9035 176.34 10.8067 175.625C10.7714 175.363 10.7973 175.098 10.8825 174.848C11.1679 174.013 11.577 172.817 11.6139 172.711C11.6497 172.609 12.3825 170.582 12.9275 169.076C13.1272 168.524 13.254 167.948 13.3051 167.363L13.392 166.368C13.4258 165.981 13.5488 165.607 13.7513 165.276C14.0401 164.804 14.1648 164.249 14.1059 163.699L13.9276 162.032L13.3315 157.784C13.1911 156.784 12.975 155.795 12.6852 154.827L10.5378 147.655L9.37318 140.757C9.11024 139.2 9.0327 137.617 9.14217 136.041L9.62308 129.12L10.4392 123.742C10.6479 122.368 10.7126 120.975 10.6323 119.587L10.3226 114.23L9.8383 104.988L9.51546 93.4863L10.3764 84.7576L11.7216 76.5424L13.0129 69.5082L13.5128 64.9218C13.6454 63.7047 13.6374 62.4764 13.4888 61.2611C13.3869 60.4279 13.2194 59.6041 12.9878 58.7973L12.8299 58.2475C12.4507 56.9268 12.2087 55.5706 12.1075 54.2003L11.9906 52.6157V51.1203C11.9906 50.8287 11.6252 50.6976 11.4398 50.9227C11.4127 50.9557 11.3927 50.9938 11.3809 51.0349L10.753 53.2318L10.3764 55.9018V56.5815C10.3764 57.735 10.2766 58.8863 10.0781 60.0226L9.99973 60.4715L9.70572 61.9444C9.61497 62.399 9.48002 62.8437 9.30281 63.2721C8.94587 64.135 8.76216 65.0597 8.76216 65.9934V68.6353L8.97739 73.1537V74.4621C8.97739 75.471 8.90105 76.4785 8.74902 77.4759L8.54693 78.8016L7.79363 81.985L6.71749 86.0413L6.29524 87.9887C6.14786 88.6685 6.14161 89.3713 6.27688 90.0536C6.39042 90.6263 6.60179 91.1751 6.90173 91.6759L6.92186 91.7096C7.31889 92.3726 7.56686 93.1194 7.64741 93.888C7.70834 94.4694 7.67392 95.0608 7.54473 95.6309L7.50115 95.8233C7.37398 96.3845 7.32975 96.9613 7.36985 97.5354L7.50321 99.4442C7.51699 99.6415 7.45846 99.8371 7.33854 99.9945L7.28629 100.063C7.16521 100.222 6.97691 100.315 6.77716 100.315C6.57083 100.315 6.37715 100.216 6.25692 100.048L5.8866 99.5315C5.7952 99.4041 5.72013 99.2657 5.66315 99.1195L4.99118 97.3962C4.92493 97.2263 4.79644 97.088 4.63184 97.0095C4.24995 96.8273 3.79414 97.0136 3.64923 97.4112L3.56663 97.6378C3.51566 97.7776 3.49875 97.9276 3.51732 98.0753L3.5505 98.3391C3.61476 98.8501 3.87029 99.3177 4.26559 99.6478L7.20128 102.099C7.37694 102.246 7.39348 102.51 7.23751 102.677L7.20549 102.712C7.1358 102.786 7.0337 102.822 6.93261 102.807C6.64439 102.763 6.46111 103.106 6.65707 103.321L8.00106 104.801C8.1027 104.913 8.12363 105.077 8.05347 105.21C8.02424 105.266 7.9809 105.313 7.92778 105.347L7.86465 105.387C7.66145 105.517 7.56343 105.761 7.62109 105.995C7.6889 106.27 7.54108 106.552 7.27646 106.653L7.20468 106.681C7.0317 106.747 6.83874 106.736 6.67451 106.65L5.15709 105.86C4.16328 105.285 3.29835 104.511 2.61591 103.587L1.77543 102.449C1.4837 102.054 1.23151 101.632 1.02248 101.187C0.453232 99.9776 0.218174 98.6375 0.341709 97.3061L1.06775 89.4814L0.852516 83.2686L0.0454102 71.87V67.1335C0.0454102 66.2211 0.153786 65.3119 0.368252 64.425C0.582722 63.5382 0.691097 62.629 0.691097 61.7166V58.9825L0.533344 52.8858C0.495144 51.4096 0.620571 49.9336 0.90733 48.4849L1.39059 46.0436L1.81126 41.6279C1.92486 40.4355 2.20226 39.2645 2.63564 38.148L2.96865 37.29C3.72735 35.3352 5.07346 33.6638 6.82158 32.5059C8.06414 31.6829 9.47288 31.144 10.9475 30.9275L12.1433 30.7519C13.1142 30.6094 14.0648 30.3522 14.975 29.9856L16.5445 29.3536C18.4255 28.5961 20.7611 27.328 20.7611 25.3002V21.6925C20.7611 21.3404 20.617 21.0037 20.3623 20.7607C20.235 20.6392 20.1339 20.4929 20.0653 20.3308L19.1084 18.0697C19.0625 17.9613 19.0302 17.8478 19.0121 17.7315L18.8889 16.9379C18.8516 16.6975 18.6446 16.5202 18.4014 16.5202C18.1754 16.5202 17.9782 16.3667 17.923 16.1475L17.4137 14.1288C17.3498 13.8757 17.3175 13.6155 17.3175 13.3544V12.1517C17.3175 12.0196 17.3495 11.8894 17.4109 11.7724L17.5345 11.5364C17.5996 11.4122 17.7282 11.3344 17.8684 11.3344C18.0918 11.3344 18.2662 11.1412 18.2433 10.9189L18.017 8.7158V6.81591C18.017 6.00163 18.169 5.1945 18.4651 4.43598L18.497 4.35436C18.8534 3.44133 19.4219 2.62617 20.1555 1.97615C20.4153 1.74593 20.6921 1.53516 21.0007 1.37624Z" fill="#F7F3D7"/>
<path fill-rule="evenodd" clip-rule="evenodd" d="M0.589127 56.9756C3.50892 57.018 7.03033 58.8859 8.80513 60.1121C9.09275 60.3678 9.46397 60.6542 9.91753 60.9595L9.67681 62.1646C9.5859 62.6197 9.45073 63.0649 9.27321 63.4937C8.91566 64.3574 8.73163 65.2831 8.73163 66.218V68.8623L8.94723 73.3852V74.6954C8.94723 75.705 8.87078 76.7132 8.71853 77.7113L8.51603 79.0388L7.76144 82.2253L6.68345 86.2857L6.2605 88.235C6.11285 88.9155 6.10659 89.6191 6.2421 90.3021C6.35582 90.8753 6.56752 91.4246 6.86789 91.9258L6.88816 91.9596C7.28587 92.6233 7.53428 93.3708 7.61497 94.1403C7.67601 94.7224 7.64152 95.3142 7.5121 95.885L7.46846 96.0774C7.34107 96.6392 7.29676 97.2167 7.33694 97.7914L7.4705 99.7017C7.48432 99.8994 7.42565 100.095 7.30546 100.253L7.25331 100.321C7.13196 100.48 6.94332 100.574 6.74322 100.574C6.53653 100.574 6.3425 100.474 6.222 100.306L5.85123 99.7896C5.75961 99.6619 5.68436 99.5232 5.62724 99.3768L4.95427 97.6522C4.88785 97.482 4.75906 97.3435 4.59412 97.2648C4.21157 97.0825 3.75507 97.2691 3.60984 97.6672L3.52726 97.8936C3.47615 98.0337 3.45921 98.184 3.47783 98.332L3.51104 98.5959C3.5754 99.1074 3.83126 99.5753 4.22702 99.9055L7.16796 102.359C7.34394 102.506 7.36051 102.771 7.20424 102.938L7.17224 102.973C7.10246 103.048 7.00026 103.083 6.89906 103.068C6.61038 103.024 6.42689 103.367 6.62324 103.583L7.96923 105.064C8.07102 105.176 8.09198 105.34 8.0217 105.474C7.99244 105.53 7.94905 105.577 7.89588 105.611L7.83244 105.651C7.62899 105.781 7.53085 106.025 7.5886 106.259C7.65652 106.535 7.50855 106.817 7.24367 106.918L7.17128 106.946C6.99812 107.012 6.80499 107.001 6.64057 106.915L5.12037 106.125C4.12486 105.548 3.25835 104.774 2.57455 103.849L1.73276 102.71C1.44064 102.315 1.18809 101.892 0.978752 101.447C0.408489 100.236 0.173004 98.8943 0.296776 97.5614L1.02402 89.7292L0.808422 83.5103L-6.86646e-05 72.1003V67.359C-6.86646e-05 66.4456 0.10849 65.5355 0.323326 64.6478C0.538162 63.7601 0.646721 62.85 0.646721 61.9366V59.1998L0.589127 56.9756ZM13.5762 62.9056C17.5455 64.6136 23.6085 66.1996 31.5954 66.0687C34.3321 66.0238 37.094 66.3425 39.7926 66.9079L40.1011 69.736L41.3947 76.7773L42.7421 85.0007L43.6045 93.7381L43.2811 105.251L42.796 114.502L42.3737 121.801C42.3678 121.903 42.3726 122.006 42.388 122.107L43.4967 129.407L44.1314 138.535C44.1395 138.651 44.1337 138.768 44.1143 138.883L42.5804 147.961L40.0256 156.488C40.0041 156.56 39.9881 156.633 39.9777 156.707L39.1848 162.352L38.9687 164.371C38.934 164.696 39.0082 165.023 39.1807 165.304L39.4856 165.803C39.6069 166.001 39.6803 166.223 39.7003 166.452L39.8686 168.379C39.8798 168.506 39.9074 168.632 39.9513 168.753C40.4901 170.241 41.4611 172.924 41.5025 173.043C41.5402 173.151 41.9654 174.393 42.2518 175.231C42.3262 175.448 42.3489 175.679 42.3182 175.906L42.2956 176.073C42.2079 176.721 41.701 177.246 41.0308 177.383L39.8855 177.617L37.2983 177.874H35.6584C35.427 177.874 35.2006 177.937 35.006 178.057C34.7156 178.235 34.3592 178.285 34.027 178.196L33.6109 178.085C33.1165 177.952 32.7175 177.603 32.536 177.145L32.0303 175.869C31.9499 175.666 31.9153 175.449 31.9288 175.233L32.2318 170.37V167.774C32.2318 167.689 32.2244 167.604 32.2098 167.52L31.9478 166.022C31.9217 165.872 31.9188 165.719 31.9394 165.569L32.1965 163.689C32.2198 163.519 32.273 163.353 32.3536 163.199L33.0508 161.87C33.1505 161.679 33.2079 161.472 33.2193 161.259L33.4714 156.596C33.3996 154.883 33.2558 151.415 33.2558 151.251C33.2558 151.086 33.0762 148.818 32.9864 147.704L32.6295 145.974C32.4364 145.039 32.3107 144.09 32.2532 143.137L32.0701 140.098L32.3322 135.499C32.3371 135.413 32.3496 135.327 32.3697 135.242L32.9864 132.645L33.2564 131.315C33.2917 131.141 33.2953 130.962 33.2671 130.787L33.0153 129.227C32.9961 129.108 32.9623 128.991 32.9146 128.879L31.8006 126.272L31.1442 124.635C31.1147 124.561 31.0911 124.486 31.0738 124.409L30.6598 122.576C30.4504 121.649 30.3073 120.708 30.2317 119.761L29.968 116.455L29.5907 112.858L29.3751 110.596V106.085C29.3751 105.941 29.3539 105.797 29.3121 105.659L28.2432 102.116L27.2708 99.8439C27.2009 99.6807 27.1609 99.5073 27.1525 99.3312L27.0035 96.2051V95.0744C27.0035 94.8757 26.7268 94.7147 26.5184 94.7147C26.2803 94.7147 26.0872 94.9077 26.0872 95.1459V96.2051L26.056 96.861C25.9697 98.6706 25.5605 100.45 24.8475 102.116L24.568 103.042C24.0028 104.916 23.7157 106.862 23.7157 108.819V110.596L23.5001 112.858L23.1228 116.455L22.859 119.761C22.7834 120.708 22.6404 121.649 22.4309 122.576L22.3424 122.968C22.1084 124.004 21.7923 125.02 21.3971 126.005L21.2902 126.272L20.4253 128.296C20.2121 128.795 20.0607 129.318 19.9743 129.854C19.8465 130.646 19.8628 131.455 20.0224 132.241L20.1044 132.645L20.3431 133.65C20.6146 134.794 20.7848 135.959 20.8517 137.133L21.0207 140.098L20.8375 143.137C20.78 144.09 20.6543 145.039 20.4613 145.974L20.1044 147.704C20.0146 148.818 19.8349 151.086 19.8349 151.251C19.8349 151.415 19.6912 154.883 19.6193 156.596L19.8263 160.425C19.8675 161.187 20.0722 161.931 20.4264 162.607C20.7126 163.152 20.9017 163.744 20.9852 164.354L21.0302 164.683C21.1311 165.421 21.1172 166.169 20.9891 166.902L20.9747 166.984C20.8977 167.425 20.859 167.871 20.859 168.318V170.37L21.1348 174.797C21.1661 175.3 21.0861 175.804 20.9005 176.272L20.6206 176.979C20.3976 177.542 19.9213 177.966 19.3364 178.123L19.0575 178.198C18.7279 178.286 18.3766 178.235 18.0857 178.057C17.8902 177.937 17.6653 177.874 17.436 177.874H15.7924L13.2053 177.617L12.1234 177.396C11.4156 177.251 10.8766 176.675 10.7797 175.959C10.7443 175.697 10.7703 175.431 10.8557 175.182C11.1416 174.346 11.5513 173.148 11.5883 173.043C11.6242 172.94 12.3582 170.911 12.9041 169.403C13.1041 168.851 13.2312 168.275 13.2824 167.689L13.3694 166.693C13.4033 166.306 13.5265 165.932 13.7293 165.6C14.0186 165.127 14.1435 164.572 14.0845 164.021L13.906 162.352L13.3087 158.1C13.1681 157.099 12.9518 156.11 12.6616 155.141L10.5103 147.961L9.34357 141.056C9.08027 139.497 9.00262 137.913 9.11224 136.337L9.59402 129.407L10.4117 124.024C10.6206 122.648 10.6854 121.254 10.605 119.865L10.2947 114.502L9.80962 105.251L9.48622 93.7381L10.3486 85.0007L11.6961 76.7773L12.9897 69.736L13.4904 65.1451C13.5716 64.4009 13.6001 63.6526 13.5762 62.9056ZM44.3591 68.1029C47.4864 69.0785 50.4484 70.3148 53.0908 71.6079V72.1003L52.2823 83.5103L52.0667 89.7292L52.9458 99.1967C52.9702 99.4594 52.9235 99.7236 52.8103 99.9642L51.861 101.98C51.8186 102.07 51.7672 102.156 51.7075 102.237L49.6738 104.988C49.5457 105.161 49.3815 105.308 49.1914 105.418L47.9704 106.125L46.462 106.909C46.2908 106.998 46.0869 107.01 45.9059 106.941L45.8669 106.926C45.5889 106.82 45.4339 106.536 45.5025 106.258C45.5604 106.023 45.4594 105.779 45.2491 105.645L45.1993 105.614C45.1432 105.578 45.0979 105.529 45.0677 105.472C44.9977 105.338 45.0189 105.177 45.1214 105.064L46.4881 103.561C46.6808 103.349 46.4911 103.023 46.2004 103.067C46.0942 103.083 45.9868 103.046 45.9154 102.969L45.8783 102.93C45.7243 102.764 45.741 102.511 45.9155 102.365L49.0128 99.7812C49.3133 99.5304 49.5059 99.1825 49.5535 98.8045L49.6149 98.3165C49.6322 98.1785 49.6164 98.0386 49.5685 97.9073L49.4747 97.6503C49.3344 97.2656 48.8715 97.0861 48.4895 97.2683C48.3291 97.3447 48.2051 97.4764 48.1426 97.6367L47.4466 99.4202C47.4007 99.5378 47.3399 99.6497 47.2656 99.7532L46.8626 100.315C46.7463 100.477 46.5537 100.574 46.3477 100.574C46.1481 100.574 45.9605 100.483 45.8431 100.329L45.7781 100.244C45.6623 100.092 45.606 99.9058 45.6191 99.7185L45.7993 97.1411C45.8093 96.9975 45.7982 96.8533 45.7663 96.7127L45.4371 95.2605C45.4014 95.1032 45.3918 94.9415 45.4086 94.7812L45.5646 93.2938C45.5871 93.0785 45.657 92.8701 45.7696 92.6822L46.5423 91.3927C46.6313 91.2441 46.6938 91.0825 46.7272 90.9144L46.9946 89.5667C47.0339 89.3686 47.032 89.1651 46.9892 88.9676L46.4073 86.2857L45.3293 82.2253L44.5747 79.0388L44.1604 76.3224C44.1491 76.2489 44.1435 76.1747 44.1435 76.1004V73.3852L44.3591 68.8623V68.1029Z" fill="url(#paint0_linear_25_2155)" fill-opacity="0.53"/>
<defs>
<linearGradient id="paint0_linear_25_2155" x1="15.1503" y1="195.659" x2="18.9055" y2="10.3592" gradientUnits="userSpaceOnUse">
<stop stop-color="#3970A6"/>
<stop offset="1" stop-color="#4C97E1" stop-opacity="0"/>
</linearGradient>
</defs>
</svg>
